<svg width="13" height="13" viewBox="0 0 13 13" fill="none" xmlns="http://www.w3.org/2000/svg">
<path d="M12.9927 6.44289C12.9927 7.34177 12.9757 8.24324 12.9975 9.14212C13.0338 10.7332 12.0978 11.9627 10.9054 12.5103C10.4265 12.7299 9.9234 12.8461 9.40338 12.8461C7.77562 12.8487 6.14545 12.872 4.51769 12.8384C3.29143 12.8126 2.28284 12.265 1.55966 11.1853C1.17993 10.617 0.998535 9.97126 0.998535 9.27127C0.998535 7.41926 0.998535 5.56984 0.998535 3.71783C0.998535 2.20678 1.68785 1.15034 2.9117 0.463259C3.4438 0.166215 4.02186 0.0396481 4.62411 0.0370651C6.20349 0.0370651 7.7853 0.0267331 9.36469 0.0422311C10.5909 0.0525631 11.614 0.553664 12.3687 1.60753C12.7895 2.19645 12.9927 2.87319 12.9927 3.6171C12.9927 4.55731 12.9927 5.5001 12.9927 6.44289ZM1.89102 6.44289C1.89102 7.39085 1.89102 8.33623 1.89102 9.28418C1.89102 9.7078 1.98293 10.1056 2.18852 10.4646C2.72788 11.4074 3.54297 11.8672 4.55397 11.8853C6.17689 11.9111 7.80223 11.8956 9.42757 11.8904C9.82665 11.8904 10.2136 11.8026 10.574 11.6192C11.556 11.1181 12.105 10.32 12.1002 9.12146C12.0905 7.28753 12.0978 5.4536 12.0978 3.61968C12.0978 3.1005 11.9599 2.62523 11.6721 2.20678C11.1158 1.40347 10.3467 1.00827 9.42757 0.997939C7.80707 0.977275 6.18656 0.99019 4.56606 0.992773C4.22019 0.992773 3.88642 1.06768 3.56232 1.19683C2.67225 1.5507 1.84507 2.447 1.88377 3.76691C1.91279 4.66062 1.89102 5.55176 1.89102 6.44289Z" fill="white"/>
<path d="M7.00913 9.18064C5.44909 9.18064 4.19139 7.85298 4.18897 6.19986C4.18655 4.57257 5.45393 3.23975 7.00429 3.23975C8.55949 3.23717 9.82203 4.56741 9.82445 6.20761C9.82445 7.84523 8.56433 9.17805 7.00913 9.18064ZM7.00913 8.22493C8.07092 8.22493 8.93196 7.3183 8.92954 6.20244C8.92713 5.09692 8.06608 4.19287 7.00913 4.19287C5.94734 4.19287 5.08145 5.09434 5.08145 6.20761C5.08387 7.32346 5.94734 8.22751 7.00913 8.22493Z" fill="white"/>
<path d="M10.1507 2.33594C10.4772 2.33594 10.7433 2.63298 10.7433 2.99718C10.7409 3.36139 10.4724 3.65585 10.1459 3.65326C9.8242 3.65068 9.56056 3.35622 9.56056 2.99977C9.55814 2.63556 9.8242 2.33594 10.1507 2.33594Z" fill="white"/>
</svg>
