<svg width="13" height="13" viewBox="0 0 13 13" fill="none" xmlns="http://www.w3.org/2000/svg">
<path d="M12.9985 6.27632C12.9985 9.72407 10.3613 12.5189 7.1076 12.5189C6.07467 12.5189 5.10427 12.237 4.26 11.7422L0.998535 12.849L2.06187 9.49966C1.52547 8.55901 1.21654 7.45576 1.21654 6.27632C1.21654 2.82857 3.854 0.0336914 7.1076 0.0336914C10.3616 0.0336914 12.9985 2.82857 12.9985 6.27632ZM7.1076 1.02788C4.3764 1.02788 2.1548 3.38234 2.1548 6.27632C2.1548 7.42472 2.50534 8.48825 3.09827 9.35342L2.47947 11.3026L4.3828 10.6566C5.1648 11.205 6.1016 11.5248 7.10774 11.5248C9.83854 11.5248 12.0605 9.17059 12.0605 6.27661C12.0605 3.38262 9.83867 1.02788 7.1076 1.02788ZM10.0824 7.71406C10.046 7.65041 9.94987 7.61196 9.8056 7.5355C9.66107 7.45903 8.95094 7.08867 8.81894 7.03784C8.68654 6.98686 8.59 6.96123 8.49387 7.1143C8.39774 7.26751 8.12094 7.61196 8.03654 7.71406C7.95227 7.81644 7.86814 7.82925 7.7236 7.75265C7.57934 7.67618 7.11414 7.51442 6.56254 6.99327C6.13334 6.58773 5.84347 6.08708 5.7592 5.93372C5.67507 5.78065 5.7504 5.69792 5.82254 5.62174C5.8876 5.55311 5.96707 5.44304 6.0392 5.35376C6.1116 5.26434 6.1356 5.20069 6.18347 5.09845C6.23187 4.99635 6.20774 4.90707 6.17147 4.83032C6.13547 4.75386 5.8464 4.00089 5.72614 3.69446C5.60587 3.38832 5.48574 3.43929 5.40134 3.43929C5.3172 3.43929 5.2208 3.42648 5.12454 3.42648C5.02827 3.42648 4.87174 3.46478 4.73934 3.61785C4.60707 3.77107 4.23414 4.14129 4.23414 4.89412C4.23414 5.64709 4.75134 6.37457 4.82374 6.47652C4.89587 6.57848 5.8224 8.17384 7.2904 8.78656C8.75854 9.39899 8.75854 9.19465 9.02334 9.16902C9.28787 9.14354 9.87747 8.79895 9.99827 8.44182C10.1183 8.08414 10.1183 7.77785 10.0824 7.71406Z" fill="white"/>
</svg>
