<svg width="285" height="65" viewBox="0 0 285 65" fill="none" xmlns="http://www.w3.org/2000/svg">
<path d="M100.148 28.67H95.8222C95.6988 27.9609 95.4714 27.3327 95.1398 26.7855C94.8083 26.2305 94.3958 25.7603 93.9023 25.375C93.4088 24.9896 92.846 24.7005 92.2137 24.5079C91.5892 24.3075 90.9146 24.2073 90.1898 24.2073C88.9022 24.2073 87.761 24.531 86.7664 25.1784C85.7718 25.8181 84.993 26.7585 84.4302 27.9994C83.8673 29.2326 83.5859 30.7395 83.5859 32.5199C83.5859 34.3312 83.8673 35.8573 84.4302 37.0982C85.0007 38.3315 85.7795 39.2641 86.7664 39.8961C87.761 40.5204 88.8983 40.8326 90.1782 40.8326C90.8876 40.8326 91.5507 40.7401 92.1675 40.5551C92.792 40.3624 93.351 40.0811 93.8445 39.7111C94.3456 39.3412 94.7659 38.8864 95.1051 38.3469C95.4521 37.8073 95.6911 37.1907 95.8222 36.4971L100.148 36.5202C99.9857 37.6455 99.6349 38.7014 99.0952 39.688C98.5632 40.6746 97.8654 41.5455 97.0019 42.3009C96.1383 43.0485 95.1282 43.6343 93.9717 44.0582C92.8151 44.4744 91.5314 44.6825 90.1204 44.6825C88.0386 44.6825 86.1804 44.2008 84.5458 43.2374C82.9112 42.2739 81.6236 40.8827 80.683 39.0637C79.7423 37.2447 79.272 35.0634 79.272 32.5199C79.272 29.9687 79.7462 27.7874 80.6945 25.9762C81.6429 24.1572 82.9344 22.7659 84.569 21.8025C86.2035 20.839 88.054 20.3573 90.1204 20.3573C91.4389 20.3573 92.6648 20.5423 93.7982 20.9122C94.9316 21.2822 95.9417 21.8256 96.8284 22.5424C97.7151 23.2515 98.4437 24.1225 99.0142 25.1553C99.5925 26.1804 99.9703 27.352 100.148 28.67Z" fill="white"/>
<path d="M104.077 20.681H108.333V36.8208H108.553L119.69 20.681H123.542V44.3588H119.251V28.2306H119.054L107.882 44.3588H104.077V20.681Z" fill="white"/>
<path d="M128.217 44.3588V20.681H143.449V24.2766H132.508V29.8261H137.076C138.888 29.8261 140.442 30.1229 141.737 30.7163C143.04 31.3021 144.039 32.1307 144.733 33.202C145.427 34.2734 145.773 35.5336 145.773 36.9826C145.773 38.4394 145.427 39.7227 144.733 40.8326C144.039 41.9348 143.04 42.798 141.737 43.4223C140.442 44.0467 138.888 44.3588 137.076 44.3588H128.217ZM132.508 40.8441H137.076C138.032 40.8441 138.842 40.663 139.505 40.3008C140.168 39.9385 140.669 39.4606 141.008 38.8671C141.355 38.2737 141.529 37.6301 141.529 36.9364C141.529 35.9344 141.143 35.0827 140.372 34.3813C139.609 33.6722 138.51 33.3177 137.076 33.3177H132.508V40.8441Z" fill="white"/>
<path d="M149.526 20.681H153.783V36.8208H154.002L165.14 20.681H168.991V44.3588H164.7V28.2306H164.504L153.332 44.3588H149.526V20.681Z" fill="white"/>
<path d="M173.667 44.3588V20.681H182.549C184.368 20.681 185.895 21.0202 187.129 21.6984C188.37 22.3767 189.307 23.3093 189.939 24.4963C190.579 25.6756 190.899 27.0167 190.899 28.5197C190.899 30.0381 190.579 31.3869 189.939 32.5662C189.299 33.7454 188.355 34.6742 187.106 35.3525C185.857 36.023 184.318 36.3583 182.491 36.3583H176.604V32.8321H181.913C182.977 32.8321 183.848 32.6471 184.527 32.2771C185.205 31.9072 185.706 31.3985 186.03 30.751C186.362 30.1036 186.527 29.3598 186.527 28.5197C186.527 27.6795 186.362 26.9396 186.03 26.2999C185.706 25.6601 185.201 25.163 184.515 24.8084C183.836 24.4462 182.961 24.2651 181.89 24.2651H177.957V44.3588H173.667Z" fill="white"/>
<path d="M214.9 28.67H210.575C210.451 27.9609 210.224 27.3327 209.892 26.7855C209.561 26.2305 209.148 25.7603 208.655 25.375C208.162 24.9896 207.599 24.7005 206.966 24.5079C206.342 24.3075 205.667 24.2073 204.942 24.2073C203.655 24.2073 202.514 24.531 201.519 25.1784C200.524 25.8181 199.746 26.7585 199.183 27.9994C198.62 29.2326 198.339 30.7395 198.339 32.5199C198.339 34.3312 198.62 35.8573 199.183 37.0982C199.753 38.3315 200.532 39.2641 201.519 39.8961C202.514 40.5204 203.651 40.8326 204.931 40.8326C205.64 40.8326 206.303 40.7401 206.92 40.5551C207.545 40.3624 208.104 40.0811 208.597 39.7111C209.098 39.3412 209.519 38.8864 209.858 38.3469C210.205 37.8073 210.444 37.1907 210.575 36.4971L214.9 36.5202C214.738 37.6455 214.388 38.7014 213.848 39.688C213.316 40.6746 212.618 41.5455 211.755 42.3009C210.891 43.0485 209.881 43.6343 208.724 44.0582C207.568 44.4744 206.284 44.6825 204.873 44.6825C202.791 44.6825 200.933 44.2008 199.299 43.2374C197.664 42.2739 196.376 40.8827 195.436 39.0637C194.495 37.2447 194.025 35.0634 194.025 32.5199C194.025 29.9687 194.499 27.7874 195.447 25.9762C196.396 24.1572 197.687 22.7659 199.322 21.8025C200.956 20.839 202.807 20.3573 204.873 20.3573C206.192 20.3573 207.417 20.5423 208.551 20.9122C209.684 21.2822 210.694 21.8256 211.581 22.5424C212.468 23.2515 213.196 24.1225 213.767 25.1553C214.345 26.1804 214.723 27.352 214.9 28.67Z" fill="white"/>
<path d="M233.021 44.3588L225.225 34.0113H223.121V44.3588H218.83V20.681H223.121V30.4157H224.196L232.616 20.681H237.901L228.545 31.4794L238.306 44.3588H233.021Z" fill="white"/>
<path d="M244.262 44.3588H239.682L248.021 20.681H253.318L261.668 44.3588H257.088L250.762 25.5368H250.577L244.262 44.3588ZM244.413 35.075H256.903V38.5203H244.413V35.075Z" fill="white"/>
<path d="M282.275 44.3588H277.973V24.2651H274.04C272.976 24.2651 272.101 24.4231 271.415 24.7391C270.737 25.0474 270.232 25.5021 269.9 26.1033C269.576 26.6968 269.414 27.4136 269.414 28.2538C269.414 29.0939 269.576 29.803 269.9 30.3811C270.224 30.9514 270.725 31.3869 271.403 31.6875C272.09 31.9804 272.961 32.1268 274.017 32.1268H279.777V35.6878H273.439C271.619 35.6878 270.085 35.3872 268.836 34.786C267.587 34.1771 266.639 33.3177 265.991 32.2078C265.351 31.0902 265.031 29.7722 265.031 28.2538C265.031 26.7431 265.347 25.4212 265.979 24.2882C266.619 23.1475 267.56 22.2611 268.801 21.6291C270.043 20.997 271.569 20.681 273.381 20.681H282.275V44.3588ZM270.027 33.6298H274.711L268.952 44.3588H264.164L270.027 33.6298Z" fill="white"/>
<path d="M81.8948 59.8837C81.8948 59.952 81.891 60.0508 81.8834 60.1799C81.8834 60.3015 81.8796 60.4344 81.872 60.5788C81.8644 60.7155 81.8568 60.8484 81.8492 60.9776C81.8416 61.0991 81.834 61.1979 81.8264 61.2739L85.0979 56.1575H86.329V62.2652H85.3943V58.6644C85.3943 58.5429 85.3943 58.3833 85.3943 58.1858C85.4019 57.9883 85.4095 57.7946 85.4171 57.6047C85.4247 57.4072 85.4323 57.259 85.4399 57.1603L82.1912 62.2652H80.9487V56.1575H81.8948V59.8837Z" fill="white"/>
<path d="M89.3905 56.1575V58.6986H92.7076V56.1575H93.7107V62.2652H92.7076V59.5418H89.3905V62.2652H88.3874V56.1575H89.3905Z" fill="white"/>
<path d="M100.672 57.6958C100.672 58.0757 100.558 58.3719 100.33 58.5847C100.102 58.7974 99.8098 58.9417 99.4526 59.0177V59.0632C99.8326 59.1164 100.163 59.2532 100.444 59.4735C100.725 59.6862 100.866 60.0204 100.866 60.4762C100.866 60.7345 100.817 60.9738 100.718 61.1941C100.627 61.4144 100.482 61.6043 100.285 61.7638C100.087 61.9234 99.8326 62.0487 99.521 62.1399C99.2094 62.2234 98.8332 62.2652 98.3925 62.2652H95.7593V56.1575H98.3811C98.8142 56.1575 99.2018 56.2069 99.5438 56.3057C99.8933 56.3968 100.167 56.5564 100.365 56.7843C100.57 57.0046 100.672 57.3084 100.672 57.6958ZM99.8288 60.4762C99.8288 60.1268 99.6958 59.8761 99.4298 59.7241C99.1638 59.5722 98.7725 59.4962 98.2557 59.4962H96.7624V61.4562H98.2785C98.7801 61.4562 99.1638 61.384 99.4298 61.2397C99.6958 61.0877 99.8288 60.8333 99.8288 60.4762ZM99.6578 57.8212C99.6578 57.5325 99.5514 57.3236 99.3386 57.1945C99.1334 57.0577 98.7952 56.9894 98.3241 56.9894H96.7624V58.6644H98.1417C98.6357 58.6644 99.0118 58.596 99.2702 58.4593C99.5286 58.3226 99.6578 58.1099 99.6578 57.8212Z" fill="white"/>
<path d="M104.801 56.0436C105.325 56.0436 105.773 56.1575 106.146 56.3854C106.526 56.6133 106.814 56.9362 107.012 57.354C107.217 57.7642 107.32 58.2466 107.32 58.8012V59.4051H103.136C103.152 60.0964 103.326 60.6243 103.661 60.989C104.003 61.346 104.478 61.5245 105.086 61.5245C105.473 61.5245 105.815 61.4904 106.112 61.422C106.415 61.346 106.727 61.2397 107.046 61.1029V61.9803C106.735 62.1171 106.427 62.2158 106.123 62.2766C105.819 62.345 105.458 62.3792 105.04 62.3792C104.462 62.3792 103.95 62.2614 103.501 62.0259C103.06 61.7904 102.715 61.441 102.464 60.9776C102.221 60.5066 102.099 59.9331 102.099 59.257C102.099 58.5884 102.209 58.0149 102.43 57.5363C102.658 57.0577 102.973 56.6893 103.376 56.431C103.786 56.1727 104.261 56.0436 104.801 56.0436ZM104.789 56.864C104.31 56.864 103.931 57.0197 103.649 57.3312C103.376 57.6351 103.212 58.0605 103.159 58.6074H106.271C106.271 58.258 106.218 57.9541 106.112 57.6958C106.005 57.4376 105.842 57.2362 105.621 57.0919C105.409 56.94 105.131 56.864 104.789 56.864Z" fill="white"/>
<path d="M111.44 62.3792C110.9 62.3792 110.418 62.269 109.992 62.0487C109.574 61.8284 109.244 61.4866 109.001 61.0232C108.765 60.5598 108.647 59.9672 108.647 59.2456C108.647 58.4935 108.773 57.882 109.023 57.411C109.274 56.94 109.612 56.5943 110.038 56.374C110.471 56.1537 110.961 56.0436 111.508 56.0436C111.82 56.0436 112.12 56.0778 112.409 56.1461C112.698 56.2069 112.933 56.2829 113.116 56.374L112.808 57.2059C112.625 57.1375 112.413 57.0729 112.17 57.0121C111.926 56.9514 111.698 56.921 111.486 56.921C111.075 56.921 110.737 57.0084 110.471 57.1831C110.205 57.3578 110.008 57.6161 109.878 57.9579C109.749 58.2998 109.685 58.7252 109.685 59.2342C109.685 59.7203 109.749 60.1344 109.878 60.4762C110.008 60.8181 110.201 61.0763 110.46 61.2511C110.718 61.4258 111.041 61.5132 111.429 61.5132C111.763 61.5132 112.056 61.479 112.306 61.4106C112.565 61.3422 112.8 61.2587 113.013 61.1599V62.0487C112.808 62.1551 112.58 62.2348 112.329 62.288C112.086 62.3488 111.79 62.3792 111.44 62.3792Z" fill="white"/>
<path d="M118.798 57.0008H116.803V62.2652H115.811V57.0008H113.839V56.1575H118.798V57.0008Z" fill="white"/>
<path d="M121.061 59.8837C121.061 59.952 121.058 60.0508 121.05 60.1799C121.05 60.3015 121.046 60.4344 121.039 60.5788C121.031 60.7155 121.023 60.8484 121.016 60.9776C121.008 61.0991 121.001 61.1979 120.993 61.2739L124.264 56.1575H125.496V62.2652H124.561V58.6644C124.561 58.5429 124.561 58.3833 124.561 58.1858C124.568 57.9883 124.576 57.7946 124.584 57.6047C124.591 57.4072 124.599 57.259 124.606 57.1603L121.358 62.2652H120.115V56.1575H121.061V59.8837Z" fill="white"/>
<path d="M133.584 64.3847H132.604V62.2652H127.554V56.1575H128.557V61.422H131.715V56.1575H132.718V61.4334H133.584V64.3847Z" fill="white"/>
<path d="M135.816 59.8837C135.816 59.952 135.812 60.0508 135.805 60.1799C135.805 60.3015 135.801 60.4344 135.793 60.5788C135.786 60.7155 135.778 60.8484 135.771 60.9776C135.763 61.0991 135.755 61.1979 135.748 61.2739L139.019 56.1575H140.25V62.2652H139.316V58.6644C139.316 58.5429 139.316 58.3833 139.316 58.1858C139.323 57.9883 139.331 57.7946 139.339 57.6047C139.346 57.4072 139.354 57.259 139.361 57.1603L136.113 62.2652H134.87V56.1575H135.816V59.8837Z" fill="white"/>
<path d="M147.621 59.2C147.621 59.709 147.552 60.161 147.416 60.556C147.286 60.9434 147.096 61.2739 146.846 61.5473C146.602 61.8208 146.302 62.0297 145.945 62.1741C145.596 62.3108 145.204 62.3792 144.771 62.3792C144.368 62.3792 143.996 62.3108 143.654 62.1741C143.312 62.0297 143.016 61.8208 142.765 61.5473C142.514 61.2739 142.316 60.9434 142.172 60.556C142.035 60.161 141.967 59.709 141.967 59.2C141.967 58.5239 142.081 57.9541 142.309 57.4907C142.537 57.0197 142.864 56.6627 143.289 56.4196C143.715 56.1689 144.22 56.0436 144.805 56.0436C145.36 56.0436 145.846 56.1689 146.264 56.4196C146.69 56.6627 147.02 57.0197 147.256 57.4907C147.499 57.9541 147.621 58.5239 147.621 59.2ZM143.004 59.2C143.004 59.6786 143.065 60.0964 143.187 60.4534C143.316 60.8029 143.513 61.0725 143.779 61.2625C144.045 61.4524 144.383 61.5473 144.794 61.5473C145.204 61.5473 145.542 61.4524 145.808 61.2625C146.074 61.0725 146.268 60.8029 146.39 60.4534C146.519 60.0964 146.583 59.6786 146.583 59.2C146.583 58.7138 146.519 58.2998 146.39 57.9579C146.26 57.6161 146.063 57.354 145.797 57.1717C145.539 56.9818 145.2 56.8868 144.782 56.8868C144.159 56.8868 143.707 57.0919 143.426 57.5021C143.145 57.9123 143.004 58.4783 143.004 59.2Z" fill="white"/>
<path d="M150.328 56.1575V58.6986H153.645V56.1575H154.648V62.2652H153.645V59.5418H150.328V62.2652H149.325V56.1575H150.328Z" fill="white"/>
<path d="M157.7 56.1575V58.6986H161.017V56.1575H162.02V62.2652H161.017V59.5418H157.7V62.2652H156.696V56.1575H157.7Z" fill="white"/>
<path d="M169.38 59.2C169.38 59.709 169.312 60.161 169.175 60.556C169.046 60.9434 168.856 61.2739 168.605 61.5473C168.362 61.8208 168.062 62.0297 167.705 62.1741C167.355 62.3108 166.964 62.3792 166.531 62.3792C166.128 62.3792 165.755 62.3108 165.413 62.1741C165.071 62.0297 164.775 61.8208 164.524 61.5473C164.274 61.2739 164.076 60.9434 163.932 60.556C163.795 60.161 163.726 59.709 163.726 59.2C163.726 58.5239 163.84 57.9541 164.068 57.4907C164.296 57.0197 164.623 56.6627 165.049 56.4196C165.474 56.1689 165.98 56.0436 166.565 56.0436C167.119 56.0436 167.606 56.1689 168.024 56.4196C168.449 56.6627 168.78 57.0197 169.015 57.4907C169.259 57.9541 169.38 58.5239 169.38 59.2ZM164.764 59.2C164.764 59.6786 164.824 60.0964 164.946 60.4534C165.075 60.8029 165.273 61.0725 165.539 61.2625C165.805 61.4524 166.143 61.5473 166.553 61.5473C166.964 61.5473 167.302 61.4524 167.568 61.2625C167.834 61.0725 168.028 60.8029 168.149 60.4534C168.278 60.0964 168.343 59.6786 168.343 59.2C168.343 58.7138 168.278 58.2998 168.149 57.9579C168.02 57.6161 167.822 57.354 167.556 57.1717C167.298 56.9818 166.96 56.8868 166.542 56.8868C165.919 56.8868 165.467 57.0919 165.185 57.5021C164.904 57.9123 164.764 58.4783 164.764 59.2Z" fill="white"/>
<path d="M170.639 58.9265H174.082V59.0177H170.639V58.9265Z" fill="white"/>
<path d="M179.98 57.0008H177.985V62.2652H176.993V57.0008H175.021V56.1575H179.98V57.0008Z" fill="white"/>
<path d="M186.498 59.2C186.498 59.709 186.429 60.161 186.293 60.556C186.163 60.9434 185.973 61.2739 185.723 61.5473C185.479 61.8208 185.179 62.0297 184.822 62.1741C184.473 62.3108 184.081 62.3792 183.648 62.3792C183.245 62.3792 182.873 62.3108 182.531 62.1741C182.189 62.0297 181.893 61.8208 181.642 61.5473C181.391 61.2739 181.193 60.9434 181.049 60.556C180.912 60.161 180.844 59.709 180.844 59.2C180.844 58.5239 180.958 57.9541 181.186 57.4907C181.414 57.0197 181.741 56.6627 182.166 56.4196C182.592 56.1689 183.097 56.0436 183.682 56.0436C184.237 56.0436 184.723 56.1689 185.141 56.4196C185.567 56.6627 185.897 57.0197 186.133 57.4907C186.376 57.9541 186.498 58.5239 186.498 59.2ZM181.881 59.2C181.881 59.6786 181.942 60.0964 182.064 60.4534C182.193 60.8029 182.39 61.0725 182.656 61.2625C182.922 61.4524 183.26 61.5473 183.671 61.5473C184.081 61.5473 184.419 61.4524 184.685 61.2625C184.951 61.0725 185.145 60.8029 185.267 60.4534C185.396 60.0964 185.46 59.6786 185.46 59.2C185.46 58.7138 185.396 58.2998 185.267 57.9579C185.138 57.6161 184.94 57.354 184.674 57.1717C184.416 56.9818 184.077 56.8868 183.659 56.8868C183.036 56.8868 182.584 57.0919 182.303 57.5021C182.022 57.9123 181.881 58.4783 181.881 59.2Z" fill="white"/>
<path d="M191.108 56.0436C191.861 56.0436 192.465 56.3057 192.921 56.8298C193.384 57.354 193.616 58.144 193.616 59.2C193.616 59.8913 193.51 60.4762 193.297 60.9548C193.092 61.4258 192.799 61.7828 192.419 62.0259C192.047 62.2614 191.606 62.3792 191.097 62.3792C190.785 62.3792 190.508 62.3374 190.265 62.2538C190.022 62.1703 189.813 62.0639 189.638 61.9348C189.471 61.798 189.326 61.6499 189.205 61.4904H189.136C189.151 61.6195 189.167 61.7828 189.182 61.9803C189.197 62.1779 189.205 62.3488 189.205 62.4931V65H188.202V56.1575H189.022L189.159 56.9894H189.205C189.326 56.8146 189.471 56.6551 189.638 56.5108C189.813 56.3664 190.018 56.2525 190.253 56.1689C190.497 56.0854 190.782 56.0436 191.108 56.0436ZM190.926 56.8868C190.516 56.8868 190.185 56.9666 189.934 57.1261C189.683 57.278 189.501 57.5097 189.387 57.8212C189.273 58.1327 189.212 58.5277 189.205 59.0063V59.2C189.205 59.7014 189.258 60.1268 189.364 60.4762C189.471 60.8257 189.649 61.0915 189.9 61.2739C190.158 61.4562 190.508 61.5473 190.949 61.5473C191.321 61.5473 191.625 61.4448 191.861 61.2397C192.104 61.0346 192.282 60.7573 192.396 60.4078C192.518 60.0508 192.579 59.6444 192.579 59.1886C192.579 58.4897 192.442 57.9313 192.168 57.5135C191.902 57.0957 191.488 56.8868 190.926 56.8868Z" fill="white"/>
<path d="M199.056 56.1575V57.0008H196.332V62.2652H195.329V56.1575H199.056Z" fill="white"/>
<path d="M205.575 59.2C205.575 59.709 205.506 60.161 205.369 60.556C205.24 60.9434 205.05 61.2739 204.799 61.5473C204.556 61.8208 204.256 62.0297 203.899 62.1741C203.549 62.3108 203.158 62.3792 202.725 62.3792C202.322 62.3792 201.95 62.3108 201.608 62.1741C201.266 62.0297 200.969 61.8208 200.719 61.5473C200.468 61.2739 200.27 60.9434 200.126 60.556C199.989 60.161 199.921 59.709 199.921 59.2C199.921 58.5239 200.035 57.9541 200.263 57.4907C200.491 57.0197 200.817 56.6627 201.243 56.4196C201.669 56.1689 202.174 56.0436 202.759 56.0436C203.314 56.0436 203.8 56.1689 204.218 56.4196C204.644 56.6627 204.974 57.0197 205.21 57.4907C205.453 57.9541 205.575 58.5239 205.575 59.2ZM200.958 59.2C200.958 59.6786 201.019 60.0964 201.14 60.4534C201.27 60.8029 201.467 61.0725 201.733 61.2625C201.999 61.4524 202.337 61.5473 202.748 61.5473C203.158 61.5473 203.496 61.4524 203.762 61.2625C204.028 61.0725 204.222 60.8029 204.343 60.4534C204.473 60.0964 204.537 59.6786 204.537 59.2C204.537 58.7138 204.473 58.2998 204.343 57.9579C204.214 57.6161 204.017 57.354 203.751 57.1717C203.492 56.9818 203.154 56.8868 202.736 56.8868C202.113 56.8868 201.661 57.0919 201.38 57.5021C201.099 57.9123 200.958 58.4783 200.958 59.2Z" fill="white"/>
<path d="M212.191 57.6958C212.191 58.0757 212.077 58.3719 211.849 58.5847C211.621 58.7974 211.329 58.9417 210.972 59.0177V59.0632C211.352 59.1164 211.682 59.2532 211.963 59.4735C212.244 59.6862 212.385 60.0204 212.385 60.4762C212.385 60.7345 212.336 60.9738 212.237 61.1941C212.146 61.4144 212.001 61.6043 211.804 61.7638C211.606 61.9234 211.352 62.0487 211.04 62.1399C210.728 62.2234 210.352 62.2652 209.911 62.2652H207.278V56.1575H209.9C210.333 56.1575 210.721 56.2069 211.063 56.3057C211.412 56.3968 211.686 56.5564 211.883 56.7843C212.089 57.0046 212.191 57.3084 212.191 57.6958ZM211.348 60.4762C211.348 60.1268 211.215 59.8761 210.949 59.7241C210.683 59.5722 210.291 59.4962 209.775 59.4962H208.281V61.4562H209.797C210.299 61.4562 210.683 61.384 210.949 61.2397C211.215 61.0877 211.348 60.8333 211.348 60.4762ZM211.177 57.8212C211.177 57.5325 211.07 57.3236 210.858 57.1945C210.652 57.0577 210.314 56.9894 209.843 56.9894H208.281V58.6644H209.661C210.155 58.6644 210.531 58.596 210.789 58.4593C211.048 58.3226 211.177 58.1099 211.177 57.8212Z" fill="white"/>
<path d="M216.274 56.055C217.019 56.055 217.57 56.2183 217.927 56.545C218.284 56.8716 218.463 57.392 218.463 58.1061V62.2652H217.733L217.539 61.3992H217.494C217.319 61.6195 217.137 61.8056 216.947 61.9576C216.764 62.1019 216.551 62.2082 216.308 62.2766C216.073 62.345 215.784 62.3792 215.442 62.3792C215.077 62.3792 214.747 62.3146 214.45 62.1855C214.161 62.0563 213.933 61.8588 213.766 61.5929C213.599 61.3194 213.516 60.9776 213.516 60.5674C213.516 59.9596 213.755 59.4924 214.234 59.1658C214.712 58.8315 215.45 58.6492 216.445 58.6188L217.482 58.5847V58.22C217.482 57.711 217.372 57.3578 217.152 57.1603C216.931 56.9628 216.62 56.864 216.217 56.864C215.898 56.864 215.594 56.9134 215.305 57.0121C215.016 57.1033 214.747 57.2097 214.496 57.3312L214.188 56.5791C214.454 56.4348 214.769 56.3133 215.134 56.2145C215.499 56.1082 215.879 56.055 216.274 56.055ZM216.57 59.3139C215.81 59.3443 215.282 59.4659 214.986 59.6786C214.697 59.8913 214.553 60.1913 214.553 60.5788C214.553 60.9206 214.655 61.1713 214.861 61.3308C215.073 61.4904 215.343 61.5701 215.67 61.5701C216.187 61.5701 216.616 61.4296 216.958 61.1485C217.3 60.8598 217.471 60.4192 217.471 59.8267V59.2797L216.57 59.3139Z" fill="white"/>
<path d="M220.84 62.2652H219.677L221.421 59.7014C221.186 59.6406 220.958 59.5456 220.737 59.4165C220.517 59.2797 220.338 59.0936 220.202 58.8581C220.065 58.615 219.996 58.315 219.996 57.9579C219.996 57.373 220.194 56.9286 220.589 56.6247C220.984 56.3133 221.509 56.1575 222.162 56.1575H224.898V62.2652H223.895V59.8381H222.413L220.84 62.2652ZM220.965 57.9693C220.965 58.3188 221.094 58.5809 221.353 58.7556C221.619 58.9227 221.987 59.0063 222.459 59.0063H223.895V56.9894H222.265C221.801 56.9894 221.467 57.0805 221.262 57.2628C221.064 57.4452 220.965 57.6807 220.965 57.9693Z" fill="white"/>
<path d="M234.079 56.1575H235.173L232.563 59.0974L235.39 62.2652H234.227L231.468 59.1658V62.2652H230.465V56.1575H231.468V59.1202L234.079 56.1575Z" fill="white"/>
<path d="M241.702 59.2C241.702 59.709 241.634 60.161 241.497 60.556C241.368 60.9434 241.178 61.2739 240.927 61.5473C240.684 61.8208 240.384 62.0297 240.026 62.1741C239.677 62.3108 239.285 62.3792 238.852 62.3792C238.45 62.3792 238.077 62.3108 237.735 62.1741C237.393 62.0297 237.097 61.8208 236.846 61.5473C236.595 61.2739 236.398 60.9434 236.253 60.556C236.117 60.161 236.048 59.709 236.048 59.2C236.048 58.5239 236.162 57.9541 236.39 57.4907C236.618 57.0197 236.945 56.6627 237.37 56.4196C237.796 56.1689 238.301 56.0436 238.887 56.0436C239.441 56.0436 239.928 56.1689 240.346 56.4196C240.771 56.6627 241.102 57.0197 241.337 57.4907C241.58 57.9541 241.702 58.5239 241.702 59.2ZM237.085 59.2C237.085 59.6786 237.146 60.0964 237.268 60.4534C237.397 60.8029 237.595 61.0725 237.861 61.2625C238.127 61.4524 238.465 61.5473 238.875 61.5473C239.285 61.5473 239.624 61.4524 239.89 61.2625C240.156 61.0725 240.349 60.8029 240.471 60.4534C240.6 60.0964 240.665 59.6786 240.665 59.2C240.665 58.7138 240.6 58.2998 240.471 57.9579C240.342 57.6161 240.144 57.354 239.878 57.1717C239.62 56.9818 239.282 56.8868 238.864 56.8868C238.241 56.8868 237.788 57.0919 237.507 57.5021C237.226 57.9123 237.085 58.4783 237.085 59.2Z" fill="white"/>
<path d="M249.96 56.1575V62.2652H249.06V58.3681C249.06 58.2086 249.063 58.0415 249.071 57.8668C249.086 57.692 249.101 57.5211 249.117 57.354H249.082L247.088 62.2652H246.244L244.306 57.354H244.272C244.287 57.5211 244.295 57.692 244.295 57.8668C244.303 58.0415 244.306 58.22 244.306 58.4023V62.2652H243.406V56.1575H244.74L246.666 61.0687L248.627 56.1575H249.96Z" fill="white"/>
<path d="M257.188 56.1575V62.2652H256.185V57.0121H253.028V62.2652H252.024V56.1575H257.188Z" fill="white"/>
<path d="M261.566 56.055C262.31 56.055 262.861 56.2183 263.219 56.545C263.576 56.8716 263.754 57.392 263.754 58.1061V62.2652H263.025L262.831 61.3992H262.785C262.611 61.6195 262.428 61.8056 262.238 61.9576C262.056 62.1019 261.843 62.2082 261.6 62.2766C261.364 62.345 261.076 62.3792 260.734 62.3792C260.369 62.3792 260.038 62.3146 259.742 62.1855C259.453 62.0563 259.225 61.8588 259.058 61.5929C258.891 61.3194 258.807 60.9776 258.807 60.5674C258.807 59.9596 259.047 59.4924 259.525 59.1658C260.004 58.8315 260.741 58.6492 261.737 58.6188L262.774 58.5847V58.22C262.774 57.711 262.664 57.3578 262.443 57.1603C262.223 56.9628 261.911 56.864 261.509 56.864C261.19 56.864 260.886 56.9134 260.597 57.0121C260.308 57.1033 260.038 57.2097 259.787 57.3312L259.48 56.5791C259.746 56.4348 260.061 56.3133 260.426 56.2145C260.791 56.1082 261.171 56.055 261.566 56.055ZM261.862 59.3139C261.102 59.3443 260.574 59.4659 260.278 59.6786C259.989 59.8913 259.844 60.1913 259.844 60.5788C259.844 60.9206 259.947 61.1713 260.152 61.3308C260.365 61.4904 260.635 61.5701 260.962 61.5701C261.478 61.5701 261.908 61.4296 262.25 61.1485C262.592 60.8598 262.763 60.4192 262.763 59.8267V59.2797L261.862 59.3139Z" fill="white"/>
<path d="M266.758 56.1575V58.6986H270.076V56.1575H271.079V62.2652H270.076V59.5418H266.758V62.2652H265.755V56.1575H266.758Z" fill="white"/>
<path d="M274.073 59.8837C274.073 59.952 274.07 60.0508 274.062 60.1799C274.062 60.3015 274.058 60.4344 274.051 60.5788C274.043 60.7155 274.035 60.8484 274.028 60.9776C274.02 61.0991 274.013 61.1979 274.005 61.2739L277.276 56.1575H278.508V62.2652H277.573V58.6644C277.573 58.5429 277.573 58.3833 277.573 58.1858C277.58 57.9883 277.588 57.7946 277.596 57.6047C277.603 57.4072 277.611 57.259 277.618 57.1603L274.37 62.2652H273.127V56.1575H274.073V59.8837Z" fill="white"/>
<path d="M280.942 62.2652H279.779L281.523 59.7014C281.288 59.6406 281.06 59.5456 280.839 59.4165C280.619 59.2797 280.441 59.0936 280.304 58.8581C280.167 58.615 280.099 58.315 280.099 57.9579C280.099 57.373 280.296 56.9286 280.691 56.6247C281.086 56.3133 281.611 56.1575 282.264 56.1575H285V62.2652H283.997V59.8381H282.515L280.942 62.2652ZM281.067 57.9693C281.067 58.3188 281.197 58.5809 281.455 58.7556C281.721 58.9227 282.09 59.0063 282.561 59.0063H283.997V56.9894H282.367C281.903 56.9894 281.569 57.0805 281.364 57.2628C281.166 57.4452 281.067 57.6807 281.067 57.9693Z" fill="white"/>
<path d="M59.2149 37.6607H60.7687L57.3702 31.8978H59.3196C59.4969 31.8978 59.6532 31.8029 59.7471 31.6449C59.8304 31.4869 59.8304 31.2972 59.7366 31.1497L55.3061 23.6379H56.974C57.1513 23.6379 57.3076 23.5431 57.4015 23.3851C57.4849 23.227 57.4849 23.0374 57.391 22.8899L54.2636 17.5905H55.6918C55.869 17.5905 56.0254 17.4957 56.1192 17.3377C56.2026 17.1796 56.2026 16.99 56.1088 16.8425L50.5628 7.43429C50.4794 7.28679 50.3126 7.19197 50.1458 7.19197C49.979 7.19197 49.8122 7.28679 49.7288 7.43429L44.1827 16.8425C44.0889 16.99 44.0889 17.1796 44.1723 17.3377C44.2557 17.4957 44.4225 17.5905 44.5997 17.5905H46.0279L42.9005 22.8899C42.8796 22.932 42.8588 22.9636 42.8484 23.0058L41.2429 20.2876H43.4739C43.6511 20.2876 43.8075 20.1928 43.9013 20.0348C43.9847 19.8767 43.9847 19.6871 43.8909 19.5396L39.9711 12.8917H41.8997C42.0769 12.8917 42.2333 12.7969 42.3271 12.6388C42.4105 12.4808 42.4105 12.2912 42.3167 12.1437L35.5197 0.64942C35.4363 0.501923 35.2695 0.407104 35.1027 0.407104C34.9359 0.407104 34.7691 0.501923 34.6857 0.64942L27.8991 12.1542C27.8053 12.3017 27.8053 12.4913 27.8991 12.6494C27.9825 12.8074 28.1493 12.9022 28.3265 12.9022H30.2551L26.3354 19.5501C26.2416 19.6976 26.2416 19.8873 26.3354 20.0453C26.4188 20.2033 26.5856 20.2982 26.7628 20.2982H28.9937L27.3675 23.0163C27.357 22.9742 27.3362 22.932 27.3153 22.9004L24.1879 17.6011H25.6161C25.7933 17.6011 25.9497 17.5062 26.0435 17.3482C26.1269 17.1902 26.1269 17.0005 26.0435 16.853L20.4975 7.44483C20.4141 7.29733 20.2473 7.20251 20.0805 7.20251C19.9137 7.20251 19.7469 7.29733 19.6635 7.44483L14.1175 16.853C14.0236 17.0005 14.0236 17.1902 14.1175 17.3482C14.2009 17.5062 14.3677 17.6011 14.5449 17.6011H15.9731L12.8456 22.9004C12.7518 23.0479 12.7518 23.2376 12.8456 23.3956C12.929 23.5536 13.0958 23.6484 13.273 23.6484H14.941L10.5105 31.1603C10.4166 31.3078 10.4166 31.4974 10.5105 31.6554C10.5939 31.8135 10.7607 31.9083 10.9379 31.9083H12.8873L9.48883 37.6712H8.81816C8.54711 37.6712 8.32819 37.8925 8.32819 38.1664C8.32819 38.4403 8.54711 38.6616 8.81816 38.6616H9.75988H47.8106H60.5393H59.2566C59.5276 38.6616 47.212 38.4403 62.8802 38.1664C47.1598 37.8714 59.4755 37.6607 59.2149 37.6607ZM47.2893 17.3587C47.3832 17.2112 47.3832 17.0216 47.2998 16.8636C47.2164 16.7055 47.0496 16.6107 46.8724 16.6107H45.4441L50.1353 8.65641L54.8265 16.6107H53.3983C53.2211 16.6107 53.0647 16.7055 52.9709 16.8636C52.8875 17.0216 52.8875 17.2112 52.9813 17.3587L56.1088 22.6581H54.4408C54.2636 22.6581 54.1072 22.7529 54.0134 22.911C53.93 23.069 53.93 23.2586 54.0238 23.4061L58.4544 30.918H56.5049C56.3277 30.918 56.1713 31.0128 56.0775 31.1708C55.9941 31.3288 55.9941 31.5185 56.0879 31.666L59.6324 37.6712H48.0399L43.7553 30.4017H46.3303C46.5075 30.4017 46.6639 30.3069 46.7577 30.1489C46.8411 29.9908 46.8411 29.8012 46.7473 29.6537L44.6519 26.1138L46.2469 23.4167C46.3407 23.2692 46.3407 23.0795 46.2573 22.9215C46.1739 22.7635 46.0071 22.6686 45.8299 22.6686H44.1619L47.2893 17.3587ZM43.307 23.6379H44.975L44.0889 25.134L43.2028 23.6274C43.2341 23.6379 43.2758 23.6379 43.307 23.6379ZM30.2551 19.5607C30.1717 19.4026 30.0049 19.3078 29.8277 19.3078H27.5968L31.5165 12.6599C31.6104 12.5124 31.6104 12.3228 31.5165 12.1647C31.4331 12.0067 31.2663 11.9119 31.0891 11.9119H29.1605L35.0923 1.861L41.024 11.9119H39.0954C38.9182 11.9119 38.7618 12.0067 38.668 12.1647C38.5846 12.3228 38.5846 12.5124 38.6784 12.6599L42.5982 19.3078H40.3672C40.19 19.3078 40.0337 19.4026 39.9398 19.5607C39.8564 19.7187 39.8564 19.9083 39.9503 20.0558L45.465 29.4008H42.8901C42.7128 29.4008 42.5565 29.4957 42.4626 29.6537C42.3792 29.8117 42.3792 30.0014 42.4731 30.1489L46.9036 37.6607H23.3018L27.7323 30.1489C27.8261 30.0014 27.8261 29.8117 27.7323 29.6537C27.6489 29.4957 27.4821 29.4008 27.3049 29.4008H24.73L30.2447 20.0558C30.3385 19.8978 30.3385 19.7187 30.2551 19.5607ZM27.0026 23.6274L26.1165 25.134L25.2304 23.6379H26.8983C26.9296 23.6379 26.9713 23.6379 27.0026 23.6274ZM14.107 31.6554C14.2009 31.5079 14.2009 31.3183 14.107 31.1603C14.0236 31.0022 13.8568 30.9074 13.6796 30.9074H11.7302L16.1607 23.3956C16.2546 23.2481 16.2546 23.0585 16.1607 22.9004C16.0773 22.7424 15.9105 22.6476 15.7333 22.6476H14.0653L17.1928 17.3482C17.2866 17.2007 17.2866 17.0111 17.1928 16.853C17.1094 16.695 16.9426 16.6002 16.7654 16.6002H15.3372L20.0284 8.64587L24.7195 16.6002H23.2913C23.1141 16.6002 22.9577 16.695 22.8639 16.853C22.7805 17.0111 22.7805 17.2007 22.8639 17.3482L25.9914 22.6476H24.3234C24.1462 22.6476 23.9898 22.7424 23.896 22.9004C23.8126 23.0585 23.8126 23.2481 23.896 23.3956L25.491 26.0927L23.3956 29.6326C23.3018 29.7801 23.3018 29.9698 23.3956 30.1278C23.479 30.2858 23.6458 30.3806 23.823 30.3806H26.4501L22.1655 37.6501H10.573L14.107 31.6554Z" fill="white"/>
<path fill-rule="evenodd" clip-rule="evenodd" d="M62.8804 38.1662C61.2634 38.1359 59.9431 38.1065 58.8752 38.078C58.8587 38.0776 58.8422 38.0772 58.8258 38.0767C57.2579 38.0347 56.2407 37.995 55.631 37.958C55.4906 37.9494 55.3718 37.9411 55.2729 37.9328C54.6749 37.883 54.8036 37.8386 55.273 37.8009C56.0833 37.7358 57.9088 37.6904 58.7627 37.6711H59.6325L59.6263 37.6605H60.7688L57.3703 31.8976H59.3198C59.497 31.8976 59.6533 31.8028 59.7472 31.6448C59.8306 31.4867 59.8306 31.2971 59.7367 31.1496L55.3062 23.6378H56.9742C57.1514 23.6378 57.3078 23.543 57.4016 23.3849C57.485 23.2269 57.485 23.0372 57.3912 22.8897L54.2637 17.5904H55.6919C55.8691 17.5904 56.0255 17.4956 56.1193 17.3375C56.2027 17.1795 56.2027 16.9899 56.1089 16.8424L50.5629 7.43415C50.4795 7.28665 50.3127 7.19183 50.1459 7.19183C49.9791 7.19183 49.8123 7.28665 49.7289 7.43415L44.1829 16.8424C44.089 16.9899 44.089 17.1795 44.1724 17.3375C44.2558 17.4956 44.4226 17.5904 44.5999 17.5904H46.0281L42.9006 22.8897C42.8952 22.9006 42.8898 22.9108 42.8846 22.9207C42.8697 22.9489 42.8562 22.9744 42.8485 23.0056L41.2431 20.2875H43.474C43.6512 20.2875 43.8076 20.1927 43.9014 20.0346C43.9848 19.8766 43.9848 19.687 43.891 19.5395L39.9712 12.8915H41.8998C42.077 12.8915 42.2334 12.7967 42.3272 12.6387C42.4106 12.4807 42.4106 12.291 42.3168 12.1435L35.5198 0.649278C35.4364 0.501781 35.2696 0.406962 35.1028 0.406962C34.936 0.406962 34.7692 0.501781 34.6858 0.649278L27.8992 12.1541C27.8054 12.3016 27.8054 12.4912 27.8992 12.6492C27.9826 12.8073 28.1494 12.9021 28.3267 12.9021H30.2553L26.3355 19.55C26.2417 19.6975 26.2417 19.8871 26.3355 20.0452C26.4189 20.2032 26.5857 20.298 26.7629 20.298H28.9939L27.3676 23.0162C27.3571 22.974 27.3363 22.9319 27.3154 22.9003L24.188 17.6009H25.6162C25.7934 17.6009 25.9498 17.5061 26.0436 17.3481C26.127 17.19 26.127 17.0004 26.0436 16.8529L20.4976 7.44469C20.4142 7.29719 20.2474 7.20237 20.0806 7.20237C19.9138 7.20237 19.747 7.29719 19.6636 7.44469L14.1176 16.8529C14.0238 17.0004 14.0238 17.19 14.1176 17.3481C14.201 17.5061 14.3678 17.6009 14.545 17.6009H15.9732L12.8458 22.9003C12.7519 23.0478 12.7519 23.2374 12.8458 23.3954C12.9292 23.5535 13.0959 23.6483 13.2732 23.6483H14.9411L10.5106 31.1601C10.4168 31.3076 10.4168 31.4973 10.5106 31.6553C10.594 31.8133 10.7608 31.9082 10.938 31.9082H12.8875L9.48895 37.6711H8.81828C8.54723 37.6711 8.32831 37.8923 8.32831 38.1662C8.32831 38.4402 8.54723 38.6614 8.81828 38.6614H59.2567C59.2626 38.6616 59.2627 38.6614 59.2567 38.6614C59.2387 38.6608 59.1663 38.6588 59.0523 38.6561C59.0395 38.6558 59.0262 38.6555 59.0123 38.6552C58.9972 38.6549 58.9814 38.6545 58.9651 38.6541C58.204 38.6365 56.1788 38.5878 55.3128 38.518C54.8433 38.4802 54.7145 38.4363 55.3128 38.3877C55.4022 38.3805 55.5078 38.3731 55.631 38.3657C56.2113 38.3306 57.1806 38.2933 58.6738 38.2545C58.7687 38.252 58.8657 38.2495 58.9649 38.247C60.0151 38.2207 61.3066 38.1938 62.8804 38.1662ZM58.7627 37.6711C58.7846 37.6706 58.806 37.6701 58.8266 37.6696C58.8807 37.6684 58.9302 37.6673 58.9744 37.6663C58.9928 37.6659 59.0104 37.6655 59.0269 37.6652C59.0797 37.664 59.1228 37.6631 59.1547 37.6623C59.1862 37.6616 59.2068 37.6611 59.215 37.6608C59.2205 37.6608 59.2204 37.6606 59.215 37.6608L59.6263 37.6605L56.088 31.6658C55.9942 31.5183 55.9942 31.3287 56.0776 31.1707C56.1714 31.0126 56.3278 30.9178 56.505 30.9178H58.4545L54.0239 23.406C53.9301 23.2585 53.9301 23.0689 54.0135 22.9108C54.1073 22.7528 54.2637 22.658 54.4409 22.658H56.1089L52.9814 17.3586C52.8876 17.2111 52.8876 17.0215 52.971 16.8634C53.0648 16.7054 53.2212 16.6106 53.3984 16.6106H54.8266L50.1354 8.65627L45.4443 16.6106H46.8725C47.0497 16.6106 47.2165 16.7054 47.2999 16.8634C47.3833 17.0215 47.3833 17.2111 47.2895 17.3586L44.162 22.6685H45.83C46.0072 22.6685 46.174 22.7633 46.2574 22.9214C46.3408 23.0794 46.3408 23.269 46.247 23.4165L44.652 26.1136L46.7474 29.6535C46.8412 29.801 46.8412 29.9907 46.7578 30.1487C46.664 30.3068 46.5076 30.4016 46.3304 30.4016H43.7554L48.0401 37.6711H58.7627ZM48.2727 37.2641H58.7581C58.77 37.2638 58.7818 37.2636 58.7934 37.2633L58.9175 37.2606L55.7403 31.8775C55.5641 31.5949 55.5746 31.2516 55.7175 30.9808L55.7223 30.9717L55.7275 30.963C55.8883 30.6922 56.172 30.5109 56.505 30.5109H57.7419L53.6762 23.6177C53.5 23.3351 53.5105 22.9917 53.6534 22.7209L53.6582 22.7119L53.6634 22.7031C53.8242 22.4323 54.1079 22.251 54.4409 22.251H55.3961L52.6337 17.5703C52.4575 17.2878 52.468 16.9443 52.6109 16.6735L52.6157 16.6645L52.6209 16.6557C52.7817 16.3849 53.0654 16.2036 53.3984 16.2036H54.114L50.1354 9.45759L46.1569 16.2036H46.8725C47.1923 16.2036 47.5023 16.3747 47.66 16.6735C47.8028 16.9443 47.8134 17.2876 47.6373 17.5702L44.8741 22.2615H45.83C46.1498 22.2615 46.4598 22.4326 46.6175 22.7315C46.7604 23.0023 46.7709 23.3459 46.5945 23.6285L45.125 26.1135L47.0949 29.4415C47.2713 29.7241 47.2608 30.0677 47.1179 30.3386L47.1131 30.3476L47.1079 30.3564C46.9471 30.6272 46.6634 30.8085 46.3304 30.8085H44.4678L48.2727 37.2641ZM60.5395 38.6181V39.0684H8.81828C8.31822 39.0684 7.9212 38.6607 7.9212 38.1662C7.9212 37.6718 8.31821 37.2641 8.81828 37.2641H9.25636L12.1749 32.3151H10.938C10.6215 32.3151 10.3145 32.1475 10.1554 31.8543C9.99456 31.5765 9.98766 31.2295 10.1628 30.9485L14.2285 24.0553H13.2732C12.9566 24.0553 12.6497 23.8876 12.4905 23.5944C12.3297 23.3166 12.3228 22.9696 12.498 22.6886L15.2604 18.0079H14.545C14.2285 18.0079 13.9215 17.8403 13.7624 17.5471C13.6016 17.2693 13.5947 16.9223 13.7698 16.6413L19.3113 7.24071C19.4689 6.96532 19.7711 6.79541 20.0806 6.79541C20.3901 6.79541 20.6923 6.96532 20.8499 7.24071L26.3981 16.6526C26.554 16.9284 26.5475 17.2654 26.4037 17.538L26.3989 17.547L26.3937 17.5558C26.2329 17.8266 25.9492 18.0079 25.6162 18.0079H24.9008L25.8699 19.6499C25.8879 19.5418 25.9268 19.4361 25.9877 19.3384L29.5427 13.309H28.3267C28.0101 13.309 27.7032 13.1414 27.544 12.8482C27.3832 12.5704 27.3763 12.2234 27.5515 11.9424L34.3336 0.445251C34.4911 0.169895 34.7934 0 35.1028 0C35.4122 0 35.7144 0.169835 35.872 0.445113L42.6644 11.9316C42.8407 12.2142 42.8302 12.5577 42.6873 12.8286L42.6825 12.8376L42.6773 12.8464C42.5166 13.1172 42.2328 13.2985 41.8998 13.2985H40.6837L44.2387 19.3277C44.2973 19.4218 44.3353 19.5226 44.3546 19.6251L45.3152 17.9973H44.5999C44.28 17.9973 43.9701 17.8262 43.8124 17.5274C43.6695 17.2567 43.6589 16.9133 43.8351 16.6307L49.3766 7.23017C49.5342 6.95479 49.8364 6.78487 50.1459 6.78487C50.4553 6.78487 50.7576 6.95478 50.9152 7.23017L56.4566 16.6307C56.6328 16.9133 56.6223 17.2567 56.4794 17.5274L56.4746 17.5365L56.4694 17.5452C56.3086 17.816 56.0249 17.9973 55.6919 17.9973H54.9765L57.7389 22.6781C57.9151 22.9607 57.9045 23.3041 57.7616 23.5748L57.7569 23.5838L57.7517 23.5926C57.5909 23.8634 57.3072 24.0447 56.9742 24.0447H56.0188L60.0845 30.9379C60.2607 31.2205 60.2501 31.5639 60.1072 31.8347L60.1025 31.8437L60.0973 31.8525C59.9365 32.1233 59.6528 32.3046 59.3198 32.3046H58.0829L61.2809 37.7275C61.7806 37.738 62.3156 37.7486 62.888 37.7594L62.8875 38.5731C62.0212 38.5883 61.2408 38.6033 60.5395 38.6181ZM43.7491 20.651C43.6627 20.6792 43.5704 20.6944 43.474 20.6944H41.9562L42.8402 22.1912L43.7491 20.651ZM26.462 20.6533L27.3782 22.2056L28.276 20.705H26.7629C26.66 20.705 26.5582 20.6873 26.462 20.6533ZM38.6681 12.1646C38.7619 12.0066 38.9183 11.9117 39.0955 11.9117H41.0241L35.0924 1.86086L29.1606 11.9117H31.0892C31.2665 11.9117 31.4333 12.0066 31.5167 12.1646C31.6105 12.3226 31.6105 12.5123 31.5167 12.6598L27.5969 19.3077H29.8278C30.0051 19.3077 30.1719 19.4025 30.2553 19.5605C30.3387 19.7186 30.3387 19.8977 30.2448 20.0557L24.7301 29.4007H27.305C27.4822 29.4007 27.649 29.4955 27.7324 29.6535C27.8263 29.8116 27.8263 30.0012 27.7324 30.1487L23.3019 37.6605H46.9037L42.4732 30.1487C42.3794 30.0012 42.3794 29.8116 42.4628 29.6535C42.5566 29.4955 42.713 29.4007 42.8902 29.4007H45.4651L39.9504 20.0557C39.8566 19.9082 39.8565 19.7186 39.9399 19.5605C40.0338 19.4025 40.1901 19.3077 40.3674 19.3077H42.5983L38.6785 12.6598C38.5847 12.5123 38.5847 12.3226 38.6681 12.1646ZM41.8858 18.9007L38.3308 12.8715C38.1546 12.5889 38.1651 12.2455 38.308 11.9747L38.3128 11.9657L38.318 11.9569C38.4788 11.6861 38.7625 11.5048 39.0955 11.5048H40.3113L35.0924 2.66177L29.8735 11.5048H31.0892C31.4058 11.5048 31.7127 11.6724 31.8718 11.9656C32.0327 12.2434 32.0396 12.5904 31.8644 12.8714L28.3094 18.9007H29.8278C30.1477 18.9007 30.4576 19.0718 30.6153 19.3706C30.7619 19.6483 30.7641 19.9779 30.5954 20.2627C30.5952 20.2629 30.5951 20.2632 30.5949 20.2634L25.4429 28.9937H27.305C27.6216 28.9937 27.9285 29.1614 28.0876 29.4546C28.2485 29.7324 28.2554 30.0794 28.0802 30.3604L24.0145 37.2536H46.1911L42.1254 30.3604C41.9493 30.0778 41.9598 29.7344 42.1027 29.4637L42.1075 29.4546L42.1127 29.4458C42.2734 29.175 42.5572 28.9937 42.8902 28.9937H44.7523L39.6026 20.2674C39.4264 19.9848 39.437 19.6414 39.5799 19.3706L39.5846 19.3616L39.5899 19.3528C39.7506 19.082 40.0343 18.9007 40.3674 18.9007H41.8858ZM22.864 16.8529C22.9579 16.6949 23.1142 16.6 23.2915 16.6H24.7197L20.0285 8.64573L15.3373 16.6H16.7655C16.9427 16.6 17.1095 16.6949 17.1929 16.8529C17.2867 17.0109 17.2867 17.2006 17.1929 17.3481L14.0655 22.6474H15.7334C15.9107 22.6474 16.0775 22.7423 16.1609 22.9003C16.2547 23.0583 16.2547 23.248 16.1609 23.3954L11.7303 30.9073H13.6797C13.857 30.9073 14.0238 31.0021 14.1072 31.1601C14.201 31.3182 14.201 31.5078 14.1072 31.6553L10.5731 37.65H22.1656L26.4502 30.3805H23.8231C23.6459 30.3805 23.4791 30.2857 23.3957 30.1276C23.3019 29.9696 23.3019 29.78 23.3957 29.6325L25.4911 26.0925L23.8961 23.3954C23.8127 23.248 23.8127 23.0583 23.8961 22.9003C23.9899 22.7423 24.1463 22.6474 24.3235 22.6474H25.9915L22.864 17.3481C22.7806 17.2006 22.7806 17.0109 22.864 16.8529ZM25.2786 22.2405L22.5096 17.5484C22.3536 17.2725 22.3601 16.9355 22.504 16.663L22.5087 16.654L22.5139 16.6452C22.6747 16.3744 22.9584 16.1931 23.2915 16.1931H24.0071L20.0285 9.44705L16.0499 16.1931H16.7655C17.0821 16.1931 17.389 16.3607 17.5481 16.6539C17.7089 16.9317 17.7158 17.2788 17.5406 17.5598L14.7783 22.2405H15.7334C16.05 22.2405 16.3569 22.4081 16.5161 22.7013C16.6769 22.9791 16.6838 23.3261 16.5086 23.6071L12.4429 30.5003H13.6797C13.9963 30.5003 14.3032 30.6679 14.4624 30.9611C14.6232 31.2389 14.6301 31.5859 14.4549 31.8669L11.2856 37.243H21.9329L25.7378 30.7875H23.8231C23.5066 30.7875 23.1997 30.6198 23.0405 30.3266C22.8796 30.0487 22.8728 29.7015 23.0482 29.4204L25.0181 26.0924L23.5416 23.5957C23.3857 23.3199 23.3922 22.9829 23.536 22.7104L23.5408 22.7014L23.546 22.6926C23.7068 22.4218 23.9905 22.2405 24.3235 22.2405H25.2786ZM43.2029 23.6272L44.089 25.1338L44.9751 23.6378H43.3072C43.2759 23.6378 43.2342 23.6378 43.2029 23.6272ZM43.9207 24.0447L44.0903 24.333L44.261 24.0447H43.9207ZM27.0027 23.6272C26.9714 23.6378 26.9297 23.6378 26.8985 23.6378H25.2305L26.1166 25.1338L27.0027 23.6272ZM26.2849 24.0447H25.9446L26.1154 24.333L26.2849 24.0447Z" fill="white"/>
<path d="M8.76944 60.9514C8.76441 60.9414 8.7594 60.9316 8.75441 60.9218C7.84741 59.1379 7.72771 58.9025 9.49151 57.2377C12.1969 54.6728 15.0841 52.2149 18.1912 49.879L8.76944 60.9514ZM8.76944 60.9514H9.02168V61.4514L8.57411 61.6743C8.53627 61.5983 8.49895 61.524 8.46229 61.4514H2.16351L8.76944 60.9514ZM50.1328 61.9514H49.9846L49.8604 61.8706C47.7471 60.4978 45.6872 58.925 43.8703 56.7742C43.0822 55.8419 43.0078 54.7389 43.325 53.6666C43.6366 52.6135 44.332 51.5524 45.149 50.5906C46.7826 48.6673 49.0351 46.989 50.2231 46.3806L50.8471 46.0611L50.946 46.7551C51.5274 50.832 53.1058 54.4578 54.9685 58.0002C56.6227 58.2121 57.8249 58.7732 58.6632 59.617C59.0158 59.9677 59.1956 60.4912 59.1339 60.9594C59.1019 61.2023 59.0003 61.4573 58.7911 61.6535C58.5768 61.8544 58.2943 61.9514 57.9837 61.9514H50.1328ZM2.16351 61.9514H1.81383L1.69386 61.6229C1.54623 61.2187 1.3986 60.8164 1.2508 60.4137C1.10305 60.0111 0.955154 59.6081 0.807228 59.2031L0.806885 59.2022C0.391708 58.0585 0.441589 56.8148 0.698578 55.6474C0.956154 54.4773 1.42995 53.3464 1.90657 52.4018L1.90686 52.4013C2.39469 51.4375 2.88068 50.4718 3.36697 49.5054L3.3689 49.5016L3.37086 49.4977C3.77271 48.6991 4.17476 47.9002 4.57793 47.1022C3.07364 46.4185 2.37686 44.877 2.31411 43.0821C2.24416 41.0811 2.94024 38.6525 4.26003 36.3333C6.9012 31.6921 12.1504 27.3092 19.2494 27.5935L19.2495 27.5935C25.1265 27.8309 31.1286 28.4205 37.2082 29.2079L38.2834 29.3472C39.3147 28.8427 40.3234 28.5075 41.3298 28.3192C43.8164 27.8539 46.2243 28.2977 48.8311 29.1846C51.1856 29.9847 53.7784 30.0908 56.3374 30.0966C56.7397 29.5898 57.1275 29.1861 57.4992 28.9128C57.9078 28.6124 58.386 28.406 58.8772 28.5301C59.3748 28.6558 59.6953 29.0714 59.9035 29.5557C60.089 29.9872 60.2211 30.5514 60.3098 31.2367C60.4654 31.298 60.6304 31.3608 60.8012 31.4259C61.4043 31.6556 62.0795 31.9127 62.6674 32.2263C63.4812 32.6606 64.2604 33.2639 64.6387 34.2042C65.8954 34.7246 67.1456 35.2385 68.3966 35.7527L68.3966 35.7525L68.4081 35.7576C68.6385 35.8591 68.844 36.0561 68.9637 36.2843C69.0869 36.519 69.1613 36.8849 68.9267 37.2196L68.9267 37.2196L68.9244 37.2229C68.6069 37.6683 68.2912 38.1158 67.9747 38.5644L67.9745 38.5647C67.6583 39.0129 67.3413 39.4623 67.0223 39.9099L66.9 40.0814L66.6918 40.1137C65.191 40.3466 63.8492 40.4906 62.6069 40.6239C58.2233 41.0944 55.0798 41.4318 50.5685 45.0694C45.2779 49.3663 41.6951 53.7949 40.6634 58.4676L40.6635 58.4676L40.662 58.474C40.6278 58.6195 40.6283 58.7855 40.664 58.9003C40.6806 58.9536 40.6992 58.9786 40.7086 58.9882C40.7138 58.9936 40.7216 59.0012 40.7485 59.0065L40.6526 59.4969L40.7467 59.0061C41.8769 59.2226 42.7861 59.5855 43.5547 60.0335C43.9031 60.2326 44.1769 60.5971 44.2449 60.9694C44.2802 61.1633 44.2688 61.4268 44.0894 61.6491C43.9052 61.8773 43.6342 61.9514 43.3883 61.9514H32.635H32.234L32.1469 61.5599C31.4191 58.2873 31.6073 54.0184 32.6298 48.8298C31.288 48.9367 29.962 49.194 28.6035 49.4576C28.0767 49.5598 27.545 49.663 27.0056 49.7587C24.882 50.1356 22.6816 50.3851 20.3975 49.8946L19.6475 49.7336L20.0976 49.1124C20.1914 48.9829 20.282 48.8533 20.3692 48.7238C19.8343 49.2331 19.2081 49.7386 18.4921 50.2783L18.4916 50.2787C15.4004 52.6026 12.5277 55.0482 9.83552 57.6005L9.83471 57.6013C9.35331 58.0557 9.04211 58.3765 8.84833 58.6387C8.66189 58.891 8.61298 59.0511 8.60821 59.1874C8.60283 59.3411 8.65021 59.5406 8.80196 59.8829C8.90284 60.1105 9.03181 60.3641 9.19175 60.6786C9.2756 60.8435 9.36796 61.0251 9.46924 61.2285L9.82927 61.9514H9.02168H2.16351ZM18.8219 50.8996L19.76 50.5016L19.5007 51.4871C19.463 51.6304 19.4243 51.7758 19.3852 51.923C19.0355 53.237 18.6486 54.6909 18.5989 56.0291C18.5442 57.5039 18.9022 58.6956 20.0512 59.399L20.0517 59.3993C20.5526 59.7068 20.9294 60.2258 21.0257 60.7273C21.0746 60.9817 21.0614 61.3003 20.8611 61.5666C20.6516 61.845 20.3255 61.9514 19.9947 61.9514H19.9794H19.9641H19.9488H19.9335H19.9182H19.9028H19.8875H19.8722H19.8569H19.8416H19.8262H19.8109H19.7956H19.7803H19.765H19.7497H19.7343H19.719H19.7037H19.6884H19.6731H19.6578H19.6425H19.6271H19.6118H19.5965H19.5812H19.5659H19.5506H19.5352H19.5199H19.5046H19.4893H19.474H19.4587H19.4434H19.4281H19.4127H19.3974H19.3821H19.3668H19.3515H19.3362H19.3209H19.3056H19.2902H19.2749H19.2596H19.2443H19.229H19.2137H19.1984H19.1831H19.1678H19.1524H19.1371H19.1218H19.1065H19.0912H19.0759H19.0606H19.0453H19.03H19.0147H18.9993H18.984H18.9687H18.9534H18.9381H18.9228H18.9075H18.8922H18.8769H18.8616H18.8463H18.831H18.8156H18.8003H18.785H18.7697H18.7544H18.7391H18.7238H18.7085H18.6932H18.6779H18.6626H18.6473H18.632H18.6167H18.6013H18.586H18.5707H18.5554H18.5401H18.5248H18.5095H18.4942H18.4789H18.4636H18.4483H18.433H18.4177H18.4024H18.3871H18.3718H18.3565H18.3412H18.3259H18.3106H18.2952H18.2799H18.2646H18.2493H18.234H18.2187H18.2034H18.1881H18.1728H18.1575H18.1422H18.1269H18.1116H18.0963H18.081H18.0657H18.0504H18.0351H18.0198H18.0045H17.9892H17.9739H17.9586H17.9433H17.928H17.9127H17.8974H17.8821H17.8668H17.8515H17.8362H17.8209H17.8056H17.7903H17.775H17.7597H17.7444H17.7291H17.7138H17.6985H17.6832H17.6679H17.6526H17.6373H17.622H17.6067H17.5914H17.5761H17.5608H17.5455H17.5302H17.5149H17.4996H17.4843H17.469H17.4537H17.4384H17.4231H17.4078H17.3925H17.3772H17.3619H17.3466H17.3313H17.316H17.3007H17.2854H17.2701H17.2548H17.2395H17.2242H17.2089H17.1936H17.1783H17.163H17.1477H17.1324H17.1171H17.1018H17.0865H17.0712H17.0559H17.0406H17.0253H17.01H16.9947H16.9794H16.9641H16.9488H16.9335H16.9182H16.9029H16.8876H16.8723H16.857H16.8417H16.8264H16.8111H16.7958H16.7805H16.7652H16.7499H16.7346H16.7193H16.704H16.6888H16.6735H16.6582H16.6429H16.6276H16.6123H16.597H16.5817H16.5664H16.5511H16.5358H16.5205H16.5052H16.4899H16.4746H16.4593H16.444H16.4287H16.4134H16.3981H16.3828H16.3675H16.3522H16.3369H16.3216H16.3063H16.291H16.2757H16.2604H16.2451H16.2298H16.2145H16.1992H16.184H16.1687H16.1534H16.1381H16.1228H16.1075H16.0922H16.0769H16.0616H16.0463H16.031H16.0157H16.0004H15.9851H15.9698H15.9545H15.9392H15.9239H15.9086H15.8933H15.878H15.8627H15.8474H15.8321H15.8168H15.8015H15.7862H15.7709H15.7556H15.7403H15.725H15.7097H15.6945H15.6792H15.6639H15.6486H15.6333H15.618H15.6027H15.5874H15.5721H15.5568H15.5415H15.5262H15.5109H15.4956H15.4803H15.465H15.4497H15.4344H15.4191H15.4038H15.3885H15.3732H15.3579H15.3426H15.3273H15.312H15.2967H15.2814H15.2661H15.2508H15.2355H15.2202H15.2049H15.1896H15.1743H15.159H15.1437H15.1284H15.1131H15.0979H15.0826H15.0673H15.052H15.0367H15.0214H15.0061H14.9908H14.9755H14.9602H14.9449H14.9296H14.9143H14.899H14.8837H14.8684H14.8531H14.8378H14.8225H14.8072H14.7919H14.7766H14.7613H14.746H14.7307H14.7154H14.7001H14.6848H14.6695H14.6542H14.6389H14.6236H14.6083H14.593H14.5777H14.5624H14.5471H14.5318H14.5165H14.5012H14.4859H14.4706H14.4553H14.44H14.4247H14.4094H14.3941H14.3788H14.3635H14.3482H14.3329H14.3176H14.3023H14.287H14.2717H14.2564H14.2411H14.2258H14.2105H14.1952H14.1799H14.1646H14.1493H14.1339H14.1186H14.1033H14.088H14.0727H14.0574H14.0421H14.0268H14.0115H13.9962H13.9809H13.9656H13.9503H13.935H13.9197H13.9044H13.8891H13.8738H13.8585H13.8432H13.8279H13.8126H13.7973H13.782H13.7667H13.7514H13.7361H13.7208H13.7055H13.6901H13.6748H13.6595H13.6442H13.6289H13.6136H13.5983H13.583H13.5677H13.5524H13.5371H13.5218H13.5065H13.4912H13.4759H13.4606H13.4453H13.4299H13.4146H13.3993H13.384H13.3687H13.3534H13.3381H13.3228H13.3075H13.2922H13.2769H13.2616H13.2463H13.2309H13.2156H13.2003H13.185H13.1697H13.1544H13.1391H13.1238H13.1085H13.0932H13.0779H13.0625H13.0472H13.0319H13.0166H13.0013H12.986H12.9707H12.9554H12.9401H12.9248H12.9094H12.8941H12.8788H12.8635H12.8482H12.8329H12.8176H12.8023H12.7869H12.7716H12.7563H12.741H12.7257H12.7104H12.6951H12.6798H12.6644H12.6491H12.6338H12.6185H12.6032H12.5879H12.5726H12.5572H12.5419H12.5266H12.5113H12.496H12.4807H12.4653H12.45H12.4347H12.4194H12.4041H12.3888H12.3735H12.3581H12.3428H12.3275H12.3122H12.2969H12.2816H12.2662H12.2509H12.2356H12.2203H12.205H12.1896H12.1743H12.159H11.864L11.7213 61.6931C11.1022 60.5722 10.9326 59.1726 10.827 57.8343L10.8142 57.6721L10.8992 57.5334C11.6925 56.2405 12.9989 54.872 14.4263 53.6912C15.8554 52.5091 17.4426 51.4848 18.8219 50.8996Z" fill="#021A35" stroke="white"/>
</svg>
