<svg width="13" height="12" viewBox="0 0 13 12" fill="none" xmlns="http://www.w3.org/2000/svg">
<path d="M12.7237 0.306334C12.6148 0.205898 12.4823 0.139198 12.3404 0.113459C12.1986 0.087721 12.0528 0.103926 11.919 0.160319L1.49991 4.53166C1.341 4.59833 1.20657 4.71816 1.11675 4.87322C1.02693 5.02828 0.986542 5.21024 1.00163 5.39186C1.01671 5.57348 1.08646 5.745 1.20044 5.88075C1.31441 6.01651 1.46649 6.1092 1.6339 6.14496L4.37118 6.72958V10.3587C4.37104 10.5257 4.41731 10.689 4.50414 10.8279C4.59096 10.9668 4.71443 11.075 4.85891 11.1389C5.00339 11.2029 5.16238 11.2195 5.31574 11.1869C5.4691 11.1542 5.60994 11.0737 5.72041 10.9555L7.2599 9.31139L9.56241 11.4753C9.70561 11.6111 9.89041 11.6862 10.0819 11.6864C10.1652 11.6863 10.2479 11.6723 10.3271 11.6449C10.4577 11.6007 10.5752 11.5206 10.6678 11.4127C10.7604 11.3049 10.8249 11.1729 10.8549 11.0301L12.9784 1.1345C13.0107 0.984783 13.0041 0.82847 12.9592 0.68249C12.9143 0.536511 12.8329 0.406429 12.7237 0.306334ZM1.67644 5.32792C1.67278 5.30176 1.67793 5.27507 1.69096 5.25258C1.70399 5.2301 1.72406 5.21327 1.74761 5.2051L10.4658 1.54738L4.6314 6.04735L1.76674 5.43548C1.74221 5.43186 1.71967 5.41907 1.70313 5.39937C1.6866 5.37968 1.67714 5.35436 1.67644 5.32792ZM5.24138 10.4439C5.22559 10.4608 5.20547 10.4723 5.18357 10.4769C5.16167 10.4816 5.13896 10.4792 5.11833 10.4701C5.0977 10.461 5.08007 10.4455 5.06766 10.4257C5.05525 10.4058 5.04863 10.3825 5.04863 10.3587V7.23323L6.75032 8.83248L5.24138 10.4439ZM10.1946 10.8685C10.1902 10.8889 10.181 10.9077 10.1677 10.9231C10.1545 10.9385 10.1378 10.9499 10.1192 10.9564C10.1006 10.9628 10.0807 10.9639 10.0616 10.9597C10.0424 10.9554 10.0246 10.9459 10.0099 10.9321L5.25229 6.46094L12.3082 1.01881L10.1946 10.8685Z" fill="white"/>
</svg>
