<svg width="19" height="13" viewBox="0 0 19 13" fill="none" xmlns="http://www.w3.org/2000/svg">
<path fill-rule="evenodd" clip-rule="evenodd" d="M0.117694 0.22354C0.212694 0.103161 0.352594 0.0336914 0.500004 0.0336914H4.02011C4.26502 0.0336914 4.47388 0.223144 4.51352 0.481234C4.6583 1.42397 5.13441 3.24419 6.25353 4.95349C6.41176 5.19528 6.35657 5.52815 6.13026 5.6971C5.90395 5.86616 5.59222 5.80721 5.43398 5.56553C4.36528 3.93318 3.8333 2.21673 3.60697 1.10163H1.1172C1.54612 2.95771 2.72252 6.11029 4.4968 8.49159C5.46937 9.79694 6.52569 10.6344 7.43935 11.138C8.3678 11.6497 9.1144 11.7987 9.4624 11.7795C9.4751 11.7788 9.4878 11.7786 9.5006 11.7789C9.6625 11.7832 9.8593 11.7358 10.0055 11.6086C10.1326 11.4981 10.2869 11.2714 10.2869 10.7623V9.13812C10.2869 8.82532 10.4017 8.50932 10.6468 8.30662C10.9056 8.0925 11.2439 8.06185 11.5465 8.21158C11.8678 8.37059 12.2351 8.57382 12.4594 8.70283C12.4721 8.7102 12.4845 8.71799 12.4965 8.72643C13.6336 9.52301 14.7291 10.8024 15.4236 11.7524C15.433 11.7653 15.4421 11.772 15.4481 11.7753C15.454 11.7784 15.4575 11.7787 15.4592 11.7787H17.9749C17.9814 11.7787 17.9844 11.7778 17.985 11.7777C17.9857 11.7773 17.986 11.7772 17.9865 11.7769C17.9877 11.7759 17.9921 11.7721 17.9958 11.7633C17.9995 11.7546 18.0006 11.7455 17.9997 11.7379C17.9991 11.7325 17.9971 11.7217 17.9846 11.7056C17.3601 10.8975 16.5297 9.90576 15.8062 9.04158C15.5494 8.73487 15.3061 8.44428 15.0902 8.1837C14.5909 7.58096 14.5547 6.69648 14.9392 6.03468C15.7818 4.5842 16.8907 2.50241 17.2328 1.10163H15.1905C15.1892 1.10163 15.1828 1.10165 15.1709 1.11059C15.1581 1.12021 15.1413 1.13903 15.1288 1.16928C14.4163 2.88633 12.9145 5.00561 11.8216 6.07035C11.5159 6.36809 11.1049 6.41562 10.772 6.20993C10.4607 6.01759 10.2869 5.6499 10.2869 5.25957V1.10163H7.6158C7.6517 1.1728 7.6869 1.2458 7.7207 1.32016C7.9234 1.76529 8.1086 2.3196 8.1086 2.85465C8.1086 3.08336 8.1103 3.42948 8.1124 3.83365C8.1177 4.88899 8.125 6.34022 8.1084 7.1305C8.1023 7.42536 7.8734 7.65902 7.5974 7.6524C7.32129 7.64578 7.1025 7.40143 7.10869 7.10658C7.12495 6.33232 7.11778 4.91665 7.11246 3.8643C7.11037 3.45172 7.10857 3.09497 7.10857 2.85465C7.10857 2.55631 6.99751 2.17387 6.82144 1.78722C6.64872 1.40793 6.44055 1.08332 6.30547 0.914264C6.17885 0.755803 6.15009 0.533168 6.2318 0.344004C6.3135 0.154839 6.49076 0.0336914 6.68582 0.0336914H10.7869C11.0631 0.0336914 11.2869 0.272761 11.2869 0.567663V5.14177C12.2736 4.12701 13.592 2.23689 14.2145 0.736612C14.3777 0.343331 14.7401 0.0336914 15.1905 0.0336914H17.2391C17.8596 0.0336914 18.3758 0.645121 18.2044 1.35483C17.8221 2.93812 16.6227 5.16238 15.7889 6.59759C15.6216 6.88562 15.6518 7.24989 15.8392 7.47608C16.0474 7.72737 16.2851 8.01134 16.5381 8.31346C17.2649 9.18148 18.1175 10.1998 18.7559 11.0258C19.3037 11.7347 18.8727 12.8467 17.9749 12.8467H15.4592C15.1271 12.8467 14.8292 12.6746 14.6354 12.4097C13.9725 11.5028 12.964 10.3367 11.9659 9.63205C11.7896 9.53091 11.5323 9.38845 11.2869 9.2619V10.7623C11.2869 11.5338 11.0368 12.089 10.637 12.4367C10.2638 12.7612 9.8215 12.8517 9.4952 12.847C8.9082 12.8735 7.9903 12.6434 6.98073 12.0869C5.94555 11.5164 4.7776 10.5837 3.71429 9.1566C1.60659 6.32772 0.304904 2.50829 0.00722357 0.658086C-0.0177364 0.502925 0.0226836 0.343918 0.117694 0.22354ZM11.2894 9.1126C11.2895 9.11271 11.2893 9.11335 11.2888 9.11463L11.2894 9.1126ZM11.1261 9.18052H11.126H11.1261ZM11.2943 5.30474C11.2942 5.30474 11.2938 5.3041 11.2931 5.30271C11.294 5.30399 11.2944 5.30463 11.2943 5.30474Z" fill="white"/>
</svg>
